<svg xmlns="http://www.w3.org/2000/svg" width="147.6" height="58.6" viewBox="0 0 147.6 58.6"><path d="M124.9.1V24h9.5v-3h-6.2v-7.9h5.1v-2.9h-5.1V3.1h6.2v-3h-9.5zm-12.2 0V24h9.5v-2.9H116V.2l-3.3-.1zM98.5.1v3h4.1V24h3.3V3.1h4.2v-3H98.5zM88.4 0C87 0 86 .5 85.2 1.2c-.7.7-1.2 1.7-1.2 3v19.7h3.3V4.5c.1-.9.7-1.5 1.8-1.5h1.8c1.1 0 1.8.6 1.8 1.6V24H96V4.3c0-1.3-.4-2.3-1.2-3C94.1.5 93.1 0 91.7 0h-3.3zm-18 4.5c0-.9.6-1.6 1.8-1.6L74 3c1.1 0 1.8.7 1.8 1.6V11h-5.3l-.1-6.5zm1-4.5C70 0 69 .5 68.2 1.3c-.7.7-1.1 1.6-1.1 2.9v19.7h3.3V13.8h5.3v10.1H79V4.2c0-1.3-.4-2.2-1.1-2.9C77.3.5 76.2 0 74.7 0h-3.3zM46.7 0c-1.2 0-2.2.5-2.9 1.2-.8.7-1.3 1.8-1.3 3.1v19.6h3.3V4.6c0-.9.6-1.6 1.7-1.6h1.6c1 0 1.7.7 1.7 1.6v19.3h3.3V4.6c0-.9.7-1.6 1.7-1.6h1.6c1 0 1.7.7 1.7 1.6v19.3h3.1V4.3c0-1.3-.5-2.4-1.2-3.1C60.3.5 59.3 0 58 0h-2.8c-.9 0-1.9.6-2.4 1.1-.2.2-.3.4-.4.6-.1-.2-.2-.4-.4-.6C51.5.5 50.5 0 49.6 0h-2.9zM29.2.1V24h9.5v-2.9h-6.2v-7.9h5.1v-2.9h-5.1V3.2h6.2v-3L29.2.1zm-13.4 3h3.7c.9 0 1.6.6 1.6 1.6v4.6c0 1.2-.9 1.7-1.9 1.7h-3.5l.1-7.9zm-3.3-3V24h3.3V13.9h3c1.3 0 2.7.8 2.7 2.4V24h3.3v-7.5c0-1.4-.5-2.3-1.2-3-.6-.6-1.4-1.1-2.3-1.1v-.2c1.7-.3 3-1.8 3-4V4.3c.2-1.3-.3-2.3-1-3C22.6.6 21.5.1 20.4.1h-7.9zM0 .1V24h3.3V13.1h5.1v-2.9H3.3V3.1h6.2v-3H0zM48.6 34.6c-1.4 0-2.5.5-3.2 1.3-.7.7-1.1 1.6-1.1 2.9v2.4c0 2.8 1.7 4.1 3.8 5.5l3.1 2.1c.9.6 1.7 1.3 1.7 2.9V54c0 .9-.7 1.6-1.8 1.6h-1.8c-1.1 0-1.7-.6-1.7-1.6v-2.5h-3.3v2.8c0 1.4.5 2.3 1.2 3.1.7.7 1.7 1.2 3.1 1.2h3.3c1.4 0 2.4-.5 3.1-1.2.8-.7 1.2-1.7 1.2-3.1V51c0-2.8-1.9-4.3-3.9-5.6l-3.1-1.9c-.9-.6-1.6-1.3-1.6-2.9v-1.5c0-.9.7-1.5 1.8-1.5h1.8c1 0 1.7.6 1.7 1.5v2.5h3.3v-2.8c0-1.3-.4-2.2-1.1-2.9-.7-.8-1.8-1.3-3.1-1.3h-3.4zm-17.9.1v3h4.1v20.9h3.3V37.7h4.2v-3H30.7zm-10.6 3h3.7c.9 0 1.6.6 1.6 1.6v4.6c0 1.2-.9 1.7-1.9 1.7H20l.1-7.9zm-3.3-3v23.9h3.3V48.5h3c1.3 0 2.7.8 2.7 2.4v7.7h3.3v-7.5c0-1.4-.5-2.3-1.2-3-.6-.6-1.4-1.1-2.3-1.1v-.2c1.7-.3 3-1.8 3-4v-3.9c0-1.2-.4-2.2-1.1-2.9-.7-.8-1.8-1.2-2.9-1.2l-7.8-.1zM3.3 39.1c0-.9.6-1.5 1.8-1.5h1.8c1.2 0 1.8.7 1.8 1.5v6.4H3.4l-.1-6.4zm1-4.5c-1.4 0-2.5.5-3.2 1.3-.7.7-1.1 1.6-1.1 2.9v19.7h3.3V48.4h5.3v10.1h3.3V38.8c0-1.3-.4-2.2-1.1-2.9-.7-.8-1.8-1.3-3.3-1.3H4.3zM138.1 34.7v23.8h9.5v-2.9h-6.2v-7.9h5.1v-3h-5.1v-7h6.2v-3M133.1 48.1c-.6-.6-1.4-1.1-2.3-1.1v-.2c1.7-.3 3-1.8 3-4v-3.9c0-1.2-.4-2.2-1.1-2.9-.7-.8-1.8-1.2-2.9-1.2h-7.9v23.9h3.3V48.4h3c1.3 0 2.7.8 2.7 2.4v7.7h3.3V51c.1-1.3-.4-2.2-1.1-2.9zm-2.5-4.3c0 1.2-.9 1.7-1.9 1.7h-3.5v-7.8h3.7c.9 0 1.6.6 1.6 1.6v4.5zM107.3 34.7v3h4.1v20.8h3.3V37.7h4.2v-3M97.3 34.6c-1.4 0-2.4.5-3.1 1.2-.7.7-1.2 1.7-1.2 3v19.7h3.3V39.1c0-.9.6-1.5 1.7-1.5h1.8c1.1 0 1.8.6 1.8 1.5v19.4h3.3V38.8c0-1.3-.4-2.3-1.2-3-.7-.7-1.7-1.2-3.1-1.2h-3.3zM80 34.7v23.8h9.6v-2.9h-6.3v-7.9h5.2v-3h-5.2v-7h6.3v-3M69 34.6c-1.4 0-2.5.5-3.2 1.3-.7.7-1.1 1.6-1.1 2.9v15.6c0 1.4.5 2.4 1.3 3.1.7.7 1.7 1.1 3 1.1h3.3c1.4 0 2.4-.5 3.1-1.2.8-.7 1.2-1.7 1.2-3.1v-2.8h-3.3V54c0 .9-.7 1.6-1.8 1.6h-1.8c-1.1 0-1.8-.6-1.8-1.6V39c0-.9.6-1.5 1.8-1.5h1.8c1.1 0 1.8.7 1.8 1.5v2.5h3.3v-2.8c0-1.3-.4-2.2-1.1-2.9-.7-.8-1.8-1.3-3.2-1.3l-3.3.1z"/></svg>