<?xml version="1.0" encoding="utf-8"?>
<!-- Generator: Adobe Illustrator 20.0.0, SVG Export Plug-In . SVG Version: 6.00 Build 0)  -->
<svg version="1.1" id="Layer_1" xmlns="http://www.w3.org/2000/svg" xmlns:xlink="http://www.w3.org/1999/xlink" x="0px" y="0px"
	 width="100px" height="39.7px" viewBox="0 0 100 39.7" enable-background="new 0 0 100 39.7" xml:space="preserve">
<g>
	<g>
		<path d="M84.6,0.1l0,16.2l6.5,0v-2l-4.2,0l0-5.4l3.5,0l0-2l-3.5,0l0-4.8l4.2,0l0-2L84.6,0.1z M76.4,0.1l0,16.2l6.5,0v-2l-4.2,0
			l0-14.2L76.4,0.1z M66.7,0.1l0,2l2.8,0l0,14.1h2.2l0-14.1l2.8,0v-2L66.7,0.1z M59.8,0c-0.9,0-1.6,0.3-2.1,0.8
			c-0.5,0.5-0.8,1.1-0.8,2l0,13.4l2.2,0l0-13.1c0-0.6,0.4-1.1,1.2-1.1l1.2,0c0.8,0,1.2,0.4,1.2,1.1l0,13.1l2.2,0l0-13.4
			c0-0.9-0.3-1.6-0.8-2C63.7,0.3,63.1,0,62.1,0L59.8,0z M47.7,3.1c0-0.6,0.4-1.1,1.2-1.1l1.2,0c0.8,0,1.2,0.5,1.2,1.1l0,4.3l-3.6,0
			V3.1z M48.4,0c-0.9,0-1.7,0.3-2.2,0.9c-0.5,0.5-0.8,1.1-0.8,2l0,13.4l2.2,0l0-6.8l3.6,0l0,6.8l2.2,0l0-13.4c0-0.9-0.3-1.5-0.7-2
			C52.3,0.3,51.6,0,50.6,0L48.4,0z M31.7,0c-0.8,0-1.5,0.3-2,0.8c-0.5,0.5-0.9,1.2-0.9,2.1l0,13.3l2.2,0l0-13.1
			C31,2.5,31.5,2,32.2,2l1.1,0c0.7,0,1.1,0.5,1.1,1.1l0,13.1l2.2,0l0-13.1c0-0.6,0.5-1.1,1.1-1.1l1.1,0C39.6,2,40,2.5,40,3.1l0,13.1
			l2.1,0l0-13.3c0-0.9-0.3-1.6-0.8-2.1c-0.5-0.5-1.2-0.8-2-0.8l-1.9,0c-0.6,0-1.3,0.4-1.6,0.7c-0.2,0.2-0.2,0.3-0.3,0.4
			c-0.1-0.1-0.1-0.2-0.3-0.4c-0.4-0.4-1-0.7-1.6-0.7L31.7,0z M19.8,0.1l0,16.2l6.5,0l0-2l-4.2,0l0-5.4l3.5,0v-2l-3.5,0l0-4.8l4.2,0
			l0-2L19.8,0.1z M10.7,2.1l2.5,0c0.6,0,1.1,0.4,1.1,1.1l0,3.1c0,0.8-0.6,1.1-1.3,1.1l-2.3,0L10.7,2.1z M8.5,0.1l0,16.2l2.2,0l0-6.8
			l2,0c0.9,0,1.8,0.6,1.8,1.6l0,5.2h2.2l0-5.1c0-0.9-0.3-1.6-0.8-2c-0.4-0.4-1-0.7-1.5-0.8V8.2c1.2-0.2,2-1.2,2-2.7l0-2.7
			c0-0.8-0.3-1.5-0.8-2c-0.5-0.5-1.2-0.8-2-0.8L8.5,0.1z M0,0.1l0,16.2l2.2,0l0-7.4l3.5,0l0-2l-3.5,0l0-4.8l4.2,0l0-2L0,0.1z"/>
		<path d="M32.9,23.4c-1,0-1.7,0.3-2.2,0.9c-0.5,0.5-0.8,1.1-0.8,2l0,1.6c0,1.9,1.1,2.8,2.6,3.7l2.1,1.4c0.6,0.4,1.1,0.9,1.1,2v1.6
			c0,0.6-0.5,1.1-1.2,1.1h-1.2c-0.7,0-1.2-0.4-1.2-1.1l0-1.7l-2.2,0l0,1.9c0,0.9,0.3,1.6,0.8,2.1c0.5,0.5,1.1,0.8,2.1,0.8h2.2
			c1,0,1.6-0.3,2.1-0.8c0.5-0.5,0.8-1.2,0.8-2.1l0-2.2c0-1.9-1.3-2.9-2.7-3.8l-2.1-1.3c-0.6-0.4-1.1-0.9-1.1-2v-1c0-0.6,0.5-1,1.2-1
			h1.2c0.7,0,1.2,0.4,1.2,1l0,1.7l2.2,0v-1.9c0-0.9-0.3-1.5-0.8-2c-0.5-0.5-1.2-0.9-2.1-0.9L32.9,23.4z M20.8,23.5l0,2l2.8,0l0,14.1
			l2.2,0l0-14.1l2.8,0l0-2L20.8,23.5z M13.6,25.5l2.5,0c0.6,0,1.1,0.4,1.1,1.1l0,3.1c0,0.8-0.6,1.1-1.3,1.1l-2.3,0L13.6,25.5z
			 M11.4,23.5l0,16.2h2.2l0-6.8l2,0c0.9,0,1.8,0.6,1.8,1.6l0,5.2l2.2,0l0-5.1c0-0.9-0.3-1.6-0.8-2c-0.4-0.4-1-0.7-1.5-0.8v-0.1
			c1.2-0.2,2-1.2,2-2.7l0-2.7c0-0.8-0.3-1.5-0.8-2c-0.5-0.5-1.2-0.8-2-0.8L11.4,23.5z M2.2,26.5c0-0.6,0.4-1,1.2-1h1.2
			c0.8,0,1.2,0.5,1.2,1l0,4.3l-3.6,0L2.2,26.5z M2.9,23.4c-0.9,0-1.7,0.3-2.2,0.9c-0.5,0.5-0.8,1.1-0.8,2l0,13.4h2.2l0-6.8l3.6,0
			l0,6.8h2.2l0-13.4c0-0.9-0.3-1.5-0.7-2c-0.5-0.5-1.2-0.9-2.2-0.9L2.9,23.4z"/>
		<polygon points="93.5,23.5 93.5,39.7 100,39.7 100,37.7 95.8,37.7 95.8,32.3 99.2,32.3 99.2,30.3 95.8,30.3 95.8,25.5 100,25.5 
			100,23.5 		"/>
		<path d="M90.2,32.6c-0.4-0.4-1-0.7-1.5-0.8v-0.1c1.2-0.2,2-1.2,2-2.7l0-2.7c0-0.8-0.3-1.5-0.8-2c-0.5-0.5-1.2-0.8-2-0.8l-5.4,0
			l0,16.2h2.2v-6.8l2,0c0.9,0,1.8,0.6,1.8,1.6l0,5.2h2.2v-5.1C90.9,33.7,90.6,33,90.2,32.6z M88.4,29.7c0,0.8-0.6,1.1-1.3,1.1
			l-2.3,0v-5.3l2.5,0c0.6,0,1.1,0.4,1.1,1.1L88.4,29.7z"/>
		<polygon points="72.7,23.5 72.7,25.5 75.5,25.5 75.5,39.7 77.7,39.7 77.7,25.5 80.5,25.5 80.5,23.5 		"/>
		<path d="M65.9,23.4c-0.9,0-1.6,0.3-2.1,0.8c-0.5,0.5-0.8,1.1-0.8,2l0,13.4l2.2,0l0-13.1c0-0.6,0.4-1,1.2-1h1.2
			c0.8,0,1.2,0.4,1.2,1l0,13.1l2.2,0l0-13.4c0-0.9-0.3-1.6-0.8-2c-0.5-0.5-1.2-0.8-2.1-0.8L65.9,23.4z"/>
		<polygon points="54.2,23.5 54.2,39.7 60.7,39.7 60.7,37.7 56.4,37.7 56.4,32.3 59.9,32.3 59.9,30.3 56.4,30.3 56.4,25.5 
			60.7,25.5 60.7,23.5 		"/>
		<path d="M46.7,23.4c-0.9,0-1.7,0.3-2.2,0.9c-0.5,0.5-0.8,1.1-0.8,2l0,10.6c0,0.9,0.3,1.6,0.9,2.1c0.5,0.5,1.1,0.8,2,0.8l2.2,0
			c0.9,0,1.6-0.3,2.1-0.8c0.5-0.5,0.8-1.2,0.8-2.1l0-1.9h-2.2v1.7c0,0.6-0.5,1.1-1.2,1.1l-1.2,0c-0.8,0-1.2-0.4-1.2-1.1l0-10.1
			c0-0.6,0.4-1,1.2-1h1.2c0.8,0,1.2,0.5,1.2,1v1.7l2.2,0v-1.9c0-0.9-0.3-1.5-0.8-2c-0.5-0.5-1.2-0.9-2.2-0.9L46.7,23.4z"/>
	</g>
</g>
</svg>
