<svg id="Layer_1" data-name="Layer 1" xmlns="http://www.w3.org/2000/svg" viewBox="0 0 255 74.84"><defs><style>.cls-1,.cls-2{fill:#231f20;}.cls-2{fill-rule:evenodd;}</style></defs><title>Artboard 1</title><path class="cls-1" d="M6.79,53.2a5,5,0,0,0-2.62-.79,2.9,2.9,0,0,0-3,2.91,2.85,2.85,0,0,0,3.08,2.89,5,5,0,0,0,2.65-.86v1.19a5.6,5.6,0,0,1-2.75.67A3.89,3.89,0,0,1,0,55.43a4,4,0,0,1,4.18-4A6.68,6.68,0,0,1,6.79,52Z"/><path class="cls-1" d="M8.59,53.18a.59.59,0,1,1,.59-.59A.59.59,0,0,1,8.59,53.18Zm.49,5.93h-1v-5h1Z"/><path class="cls-1" d="M11.68,54.11h1.58V55H11.68v2.57a.69.69,0,0,0,.71.75A2.14,2.14,0,0,0,13.52,58v.93a3,3,0,0,1-1.21.33,1.48,1.48,0,0,1-1.63-1.58V55H9.81v-.11l1.87-1.82Z"/><path class="cls-1" d="M15.18,61.69h-1.1L15.78,58l-1.94-3.93H15l1.35,2.82,1.3-2.82h1.12Z"/><path class="cls-1" d="M22.63,59.22a2.61,2.61,0,1,1,2.54-2.6A2.52,2.52,0,0,1,22.63,59.22Zm0-4.68a2.08,2.08,0,1,0,2,2.08A2,2,0,0,0,22.63,54.53Z"/><path class="cls-1" d="M29.35,52.12a2.5,2.5,0,0,0-.91-.19c-.83,0-1.22.48-1.22,1.54v.63h1v.43h-1v4.57H26.7V54.54h-.93v-.43h.93v-.83a1.73,1.73,0,0,1,1.74-1.87,2.19,2.19,0,0,1,.92.21Z"/><path class="cls-1" d="M6.92,63.45h-5V67h5v1.66h-5v6H0V61.8H6.92Z"/><path class="cls-1" d="M10.45,66.2v1.94h0c.85-1.49,1.66-2.11,2.45-2.11a3,3,0,0,1,2,1l-.88,1.46a2.76,2.76,0,0,0-1.57-.83,2.36,2.36,0,0,0-2.06,2.6v4.43H8.77V66.2Z"/><path class="cls-1" d="M22.83,73.84a5.55,5.55,0,0,1-3.38,1c-2.64,0-4.11-2.17-4.11-4.51,0-2.56,1.62-4.3,4-4.3S23,67.55,23,70.69H17a2.67,2.67,0,0,0,2.85,2.55,5.39,5.39,0,0,0,3-1Zm-1.52-4.26a1.94,1.94,0,0,0-2-2.09,2.2,2.2,0,0,0-2.28,2.09Z"/><path class="cls-1" d="M26.39,66.2v1.11A3.59,3.59,0,0,1,28.87,66a2.81,2.81,0,0,1,2.53,1.53A3.8,3.8,0,0,1,34.23,66C35.94,66,37,67.35,37,69.35v5.32H35.36V69.42a1.77,1.77,0,0,0-1.76-2,3,3,0,0,0-1.89,1.08v6.15H30V69.4c0-1.37-.69-2-1.52-2a2.49,2.49,0,0,0-2.11,1.08v6.15H24.71V66.2Z"/><path class="cls-1" d="M45.9,74.18a2.7,2.7,0,0,1-1.63.66c-.73,0-1.13-.27-1.28-.87a3.68,3.68,0,0,1-2.29.87,2,2,0,0,1-2.08-2.07c0-1.69,1.53-2.19,2.89-2.68L43,69.55V69.1c0-1.06-.51-1.49-1.53-1.49A3.5,3.5,0,0,0,38.81,69V67.17A3.49,3.49,0,0,1,41.62,66c1.72,0,3.08.87,3.08,2.79v4.36c0,.33.11.44.32.44a2,2,0,0,0,.89-.46ZM43,70.48c-1.43.49-2.68,1-2.68,2a1.15,1.15,0,0,0,1.2,1.19A2.17,2.17,0,0,0,43,73Z"/><path class="cls-1" d="M49,67.31h0A3.29,3.29,0,0,1,51.6,66c1.61,0,2.89,1.1,2.89,3.41v5.23H52.81V69.42c0-1.25-.64-2.06-1.66-2.06A2.76,2.76,0,0,0,49,68.59v6.07H47.35V66.2H49Z"/><path class="cls-1" d="M58.79,66.2h2.68v1.5H58.79V72A1.17,1.17,0,0,0,60,73.33a3.64,3.64,0,0,0,1.9-.62v1.57a5.05,5.05,0,0,1-2,.57,2.5,2.5,0,0,1-2.75-2.66V67.7H55.64v-.19l3.15-3.08Z"/><path class="cls-1" d="M64.83,74.67H63.15V61.8h1.68Z"/><path class="cls-1" d="M74.32,73.84a5.53,5.53,0,0,1-3.38,1c-2.64,0-4.11-2.17-4.11-4.51,0-2.56,1.62-4.3,4-4.3s3.68,1.53,3.68,4.66h-6a2.66,2.66,0,0,0,2.85,2.55,5.36,5.36,0,0,0,3-1Zm-1.51-4.26a1.94,1.94,0,0,0-2-2.09,2.2,2.2,0,0,0-2.29,2.09Z"/><path class="cls-1" d="M90,73.56a1,1,0,0,1,1-1h0a1,1,0,0,1,1,1h0a1,1,0,0,1-1,1h0a1,1,0,0,1-1-1Zm0-4a1,1,0,0,1,1-1h0a1,1,0,0,1,1,1h0a1,1,0,0,1-1,1h0a1,1,0,0,1-1-1Zm0-4a1,1,0,0,1,1-1h0a1,1,0,0,1,1,1h0a1,1,0,0,1-1,1h0a1,1,0,0,1-1-1Zm0-4a1,1,0,0,1,1-1h0a1,1,0,0,1,1,1h0a1,1,0,0,1-1,1h0a1,1,0,0,1-1-1Zm0-4a1,1,0,0,1,1-1h0a1,1,0,0,1,1,1h0a1,1,0,0,1-1,1h0a1,1,0,0,1-1-1Zm0-4a1,1,0,0,1,1-1h0a1,1,0,0,1,1,1h0a1,1,0,0,1-1,1h0a1,1,0,0,1-1-1Zm0-4a1,1,0,0,1,1-1h0a1,1,0,0,1,1,1h0a1,1,0,0,1-1,1h0a1,1,0,0,1-1-1Zm0-4a1,1,0,0,1,1-1h0a1,1,0,0,1,1,1h0a1,1,0,0,1-1,1h0a1,1,0,0,1-1-1Zm0-4a1,1,0,0,1,1-1h0a1,1,0,0,1,1,1h0a1,1,0,0,1-1,1h0a1,1,0,0,1-1-1Zm0-4a1,1,0,0,1,1-1h0a1,1,0,0,1,1,1h0a1,1,0,0,1-1,1h0a1,1,0,0,1-1-1Zm0-4a1,1,0,0,1,1-1h0a1,1,0,0,1,1,1h0a1,1,0,0,1-1,1h0a1,1,0,0,1-1-1Zm0-4a1,1,0,0,1,1-1h0a1,1,0,0,1,1,1h0a1,1,0,0,1-1,1h0a1,1,0,0,1-1-1Zm0-4a1,1,0,0,1,1-1h0a1,1,0,0,1,1,1h0a1,1,0,0,1-1,1h0a1,1,0,0,1-1-1Zm0-4a1,1,0,0,1,1-1h0a1,1,0,0,1,1,1h0a1,1,0,0,1-1,1h0a1,1,0,0,1-1-1Zm0-4a1,1,0,0,1,1-1h0a1,1,0,0,1,1,1h0a1,1,0,0,1-1,1h0a1,1,0,0,1-1-1Zm0-4a1,1,0,0,1,1-1h0a1,1,0,0,1,1,1h0a1,1,0,0,1-1,1h0a1,1,0,0,1-1-1Zm0-4a1,1,0,0,1,1-1h0a1,1,0,0,1,1,1h0a1,1,0,0,1-1,1h0a1,1,0,0,1-1-1Zm0-4a1,1,0,0,1,1-1h0a1,1,0,0,1,1,1h0a1,1,0,0,1-1,1h0a1,1,0,0,1-1-1Zm0-4a1,1,0,0,1,1-1h0a1,1,0,0,1,1,1h0a1,1,0,0,1-1,1h0a1,1,0,0,1-1-1Z"/><path class="cls-1" d="M232.25,16.21V40.08h9.54V37.13h-6.24V29.22h5.13V26.27h-5.13V19.2h6.24v-3Zm-12.16,0V40.08h9.54V37.13H223.4V16.21Zm-14.23,0v3H210V40.08h3.3V19.2h4.18v-3Zm-10.14-.08a4.2,4.2,0,0,0-3.11,1.19,4.08,4.08,0,0,0-1.19,3V40.08h3.3V20.67a1.54,1.54,0,0,1,1.75-1.55h1.79a1.58,1.58,0,0,1,1.79,1.55V40.08h3.3V20.35a4,4,0,0,0-1.19-3A4.22,4.22,0,0,0,199,16.13ZM177.8,20.67a1.54,1.54,0,0,1,1.75-1.55h1.79a1.58,1.58,0,0,1,1.79,1.55V27H177.8Zm1-4.53a4.25,4.25,0,0,0-3.18,1.27,4.05,4.05,0,0,0-1.12,2.94V40.08h3.3V30h5.33v10.1h3.31V20.35a4,4,0,0,0-1.07-2.94,4.4,4.4,0,0,0-3.27-1.27Zm-24.69,0a4.21,4.21,0,0,0-4.21,4.3V40.08h3.3V20.75a1.58,1.58,0,0,1,1.67-1.63h1.63a1.6,1.6,0,0,1,1.67,1.63V40.08h3.31V20.75a1.6,1.6,0,0,1,1.67-1.63h1.63a1.6,1.6,0,0,1,1.67,1.63V40.08h3.14V20.43a4.2,4.2,0,0,0-1.23-3.11,4.1,4.1,0,0,0-3-1.19h-2.82a3.73,3.73,0,0,0-2.39,1.07,1.87,1.87,0,0,0-.4.6,2,2,0,0,0-.4-.6,3.55,3.55,0,0,0-2.43-1.07Zm-17.49.08V40.08h9.54V37.13h-6.24V29.22H145V26.27h-5.13V19.2h6.24v-3Zm-13.43,3h3.74a1.51,1.51,0,0,1,1.59,1.55v4.61A1.68,1.68,0,0,1,126.66,27h-3.46Zm-3.3-3V40.08h3.3V30h3a2.52,2.52,0,0,1,2.71,2.43v7.67h3.3V32.6a4,4,0,0,0-1.15-3,3.54,3.54,0,0,0-2.27-1.11v-.2a3.77,3.77,0,0,0,3-4V20.39a4.18,4.18,0,0,0-1.12-2.95,4.07,4.07,0,0,0-2.9-1.23Zm-12.52,0V40.08h3.3V29.22h5.13V26.27h-5.13V19.2h6.25v-3Z"/><path class="cls-1" d="M155.94,50.74A4.29,4.29,0,0,0,152.72,52,4,4,0,0,0,151.62,55v2.43c0,2.78,1.67,4.1,3.81,5.53l3.1,2.07a3.11,3.11,0,0,1,1.68,2.9v2.35a1.57,1.57,0,0,1-1.76,1.56h-1.83a1.56,1.56,0,0,1-1.75-1.56v-2.5h-3.3v2.82a4,4,0,0,0,1.24,3.07,4.26,4.26,0,0,0,3.1,1.15h3.26a4.37,4.37,0,0,0,3.14-1.15,4,4,0,0,0,1.19-3.07v-3.3c0-2.79-1.87-4.34-3.94-5.65l-3.06-1.95a3.08,3.08,0,0,1-1.59-2.91V55.27a1.58,1.58,0,0,1,1.79-1.55h1.79a1.55,1.55,0,0,1,1.71,1.55v2.51h3.3V55A4,4,0,0,0,162.39,52a4.24,4.24,0,0,0-3.14-1.27Zm-17.85.08v3h4.13V74.68h3.3V53.8h4.18v-3Zm-10.65,3h3.74a1.52,1.52,0,0,1,1.59,1.55V60a1.68,1.68,0,0,1-1.87,1.67h-3.46Zm-3.3-3V74.68h3.3V64.58h3a2.52,2.52,0,0,1,2.7,2.43v7.67h3.3V67.21a4,4,0,0,0-1.15-3A3.52,3.52,0,0,0,133,63.11v-.2a3.76,3.76,0,0,0,3-4V55A4.19,4.19,0,0,0,135,52a4.06,4.06,0,0,0-2.9-1.23Zm-13.47,4.45a1.54,1.54,0,0,1,1.75-1.55h1.79A1.58,1.58,0,0,1,116,55.27v6.37h-5.33Zm1-4.53A4.26,4.26,0,0,0,108.49,52,4.05,4.05,0,0,0,107.37,55V74.68h3.3V64.58H116v10.1h3.3V55A4,4,0,0,0,118.23,52,4.39,4.39,0,0,0,115,50.74Z"/><polygon class="cls-1" points="245.46 50.82 245.46 74.68 255 74.68 255 71.74 248.75 71.74 248.75 63.83 253.89 63.83 253.89 60.88 248.75 60.88 248.75 53.8 255 53.8 255 50.82 245.46 50.82"/><path class="cls-1" d="M240.48,64.22a3.54,3.54,0,0,0-2.27-1.12v-.2a3.77,3.77,0,0,0,3-4V55a4.2,4.2,0,0,0-1.12-2.95,4.06,4.06,0,0,0-2.91-1.23h-7.91V74.68h3.3V64.58h3A2.52,2.52,0,0,1,238.33,67v7.67h3.3V67.21A4,4,0,0,0,240.48,64.22ZM237.94,60a1.68,1.68,0,0,1-1.87,1.67h-3.46V53.8h3.74a1.52,1.52,0,0,1,1.59,1.55Z"/><polygon class="cls-1" points="214.64 50.82 214.64 53.8 218.78 53.8 218.78 74.68 222.08 74.68 222.08 53.8 226.25 53.8 226.25 50.82 214.64 50.82"/><path class="cls-1" d="M204.67,50.74a4.2,4.2,0,0,0-3.1,1.19,4.07,4.07,0,0,0-1.19,3V74.68h3.31V55.27a1.54,1.54,0,0,1,1.75-1.55h1.79A1.58,1.58,0,0,1,209,55.27V74.68h3.3V55a4,4,0,0,0-1.19-3A4.23,4.23,0,0,0,208,50.74Z"/><polygon class="cls-1" points="187.39 50.82 187.39 74.68 196.94 74.68 196.94 71.74 190.69 71.74 190.69 63.83 195.83 63.83 195.83 60.88 190.69 60.88 190.69 53.8 196.94 53.8 196.94 50.82 187.39 50.82"/><path class="cls-1" d="M176.35,50.74A4.27,4.27,0,0,0,173.17,52,4,4,0,0,0,172.06,55V70.54a4.1,4.1,0,0,0,1.27,3.11,4.19,4.19,0,0,0,3,1.11h3.3a4.34,4.34,0,0,0,3.1-1.15A4,4,0,0,0,184,70.54V67.72h-3.3v2.5a1.58,1.58,0,0,1-1.79,1.56H177.1a1.55,1.55,0,0,1-1.75-1.56v-15a1.54,1.54,0,0,1,1.75-1.55h1.79a1.58,1.58,0,0,1,1.79,1.55v2.51H184V55A4.06,4.06,0,0,0,182.87,52a4.29,4.29,0,0,0-3.22-1.27Z"/><path class="cls-2" d="M68.59,39.4l.17.1.05,0,.14,0h.28l.08,0a.81.81,0,0,0,.36-.18.93.93,0,0,0-.06-.16C69.06,37.88,67.88,38.88,68.59,39.4Zm-13,.16h.28l.14,0,.05,0,.17-.1c.71-.52-.46-1.52-1-.21,0,0,0,.07-.05.16a.81.81,0,0,0,.35.18Zm15.32-10.8c.15-.71-.2-.83-.2-.83v-12c1.59-.52,1.23-1.32,1.23-1.32.67-.81.15-1.09.15-1.09.63-1.19-.25-1.39-.25-1.39a1,1,0,0,0-1.08-1v-3h1.94l1.79-6.83L72.42,3.85l.51.25-.72,2.55H70.69V3.9h.5l-1-3.9-1,4h.41V6.66H68l-.58-2.61L68,3.75,66,1.17l1.64,7h2V11c-1.33-.31-2.7,2.36-2.7,2.36-.86.21-3.78,3-5.31,4.25S59.55,19.62,59,20s-1.13,0-1.64-.15-1.59-.37-1.59-.37l.31-.21-.83-5.85c.2.2,2.16.78,2.81.1a1.67,1.67,0,0,0-.15-2.67c.15,2.38-2.25,1.27-3.68.82a11.18,11.18,0,0,0-2.67-.51c.11-.82.58-.78.58-.78l.41-.1.31.68.55-.52.33,0,.2.68c.47-.41,1.89-1.8,1.74-2.16s-.27-.15.15-.93.2-.92-.05-1.29A10.36,10.36,0,0,0,53.2,5.75C51.41,4.26,50.7,4.56,47.68,4,45.16,3.44,44.42.61,44.37.62a1.83,1.83,0,0,0,0,.39c.21,1.65-.55.73-1,2.36a6.41,6.41,0,0,0-.05,2.93c-1.22-.25-1.44-1-1.44-1-1.74,4.27.2,5.17.81,5.29.05,0,0,.09,0,.13-.89,2.49-2.55,1.08-2.55,1.08.61,2.26,2.19,1.9,2.19,1.9s-.1.31-.56,2.48-1.33,1.43-1.33,1.43c1.06,1.11,1.89.27,1.89.27l-.31,1.69-.86.15-.47-.42-1.32.73S43.54,25,44.1,25.37c0,0,0,.08-.06.12-1.11,2-2.23.34-2.23.34.41,2.3,2.15,1.9,2.15,1.9a82.18,82.18,0,0,0-4.29,15.14c-1.21-.12-1.69.68-3.23-3.64s-3-4.41-3-4.41,1.44.81.36,4.41.62,5.19.62,5.19c-1.53,1.54-.51,5.87-.52,6.83a12.12,12.12,0,0,1-.91,3c2.45-1.27,3-3.14,4.24-5.59s2.21-2.28,2.21-2.28c.15,3.17.71,4.37,2.1,7.29a8.92,8.92,0,0,0,7.76,4.83c3.37.21,5.72-3.59,5.72-3.59-.62-.36-2.3-3.24-2.3-3.24-.56,2.05-3.33,3.54-5.22,1.09s-.1-6.78-.1-6.78a11.72,11.72,0,0,1,3.17.88L49.92,43l-.76-.33.76-1.59V29.27h9.37c.58-.36,1.42-.31,3.78-.41S65.83,30,65.83,30H50.55V42.41a20,20,0,0,0,3.88,10.73,19.67,19.67,0,0,0,8.29,6.22,20.94,20.94,0,0,0,6.94-5.49v4.56h1.19v-6c3.32-3.34,3.68-10.07,3.68-10.07V30H71.4C71.5,28.95,70.94,28.76,70.94,28.76ZM54.3,12.93a1.7,1.7,0,0,1-.53.34c-.39.19-.27.28-.27.28a.41.41,0,0,1-.32-.12,2.45,2.45,0,0,1-.21-.86c-.12.46-.23.65-.49.6s-.34-.69-.34-.69c-.12.15-.3.55-.68.39s-.26-1-.26-1A4.45,4.45,0,0,1,54.3,12.93ZM51.74,6.38l.07.92-.32.18h-.8a1.11,1.11,0,0,1-.14-.57C50.56,6.62,51.74,6.38,51.74,6.38ZM44,24.71l-3.7-4.34.35-.21.28.39a1.59,1.59,0,0,1,1.95.32c.65.71,0,1.86,0,1.86l.27.4,2.55-1.32-.62-1c-.35.28-.25,1-.25,1-1.2-.41-1.28-2.32-1.28-2.32l.62-.54-.28-.44.39-.3.28.41.73-.46a3.86,3.86,0,0,0,1.4,2.3l-1.1,0,.66,1.12,2.52-1.27-.1-.22a1.27,1.27,0,0,1-.4.06,1.49,1.49,0,0,1-1.42-1.55,1.61,1.61,0,0,1,.55-1.23l-.21-.44.49-.23.17.42a1.29,1.29,0,0,1,.42-.07,1.5,1.5,0,0,1,1.43,1.56A1.75,1.75,0,0,1,49,20l.23.16,2.48-1.24-.37-1.13c-.28,0-.72.85-.72.85a4.5,4.5,0,0,0-.93-2.47l1-.27-.21-.65.41,0,.23.51.67-.21a2.35,2.35,0,0,1,1,2.48c-.23-.46-1-.41-1-.41l.43,1.17,2.64-1.24-.09-.56c-.48,0-.92-.21-1.19-1.06s.71-1.6.71-1.6l0-.5.39,0,.87,5.39Zm18.24-.32c1.45-.44,2.24-2.87,2.45-3.35a18.84,18.84,0,0,1,1.37-2c.21-.31,1.44-1.73,2-2.38a2.29,2.29,0,0,1,1.68-.58V27.47a11.72,11.72,0,0,1-1.47,0,6.8,6.8,0,0,1-2-1.07C66,26.09,62.2,24.39,62.2,24.39Zm0,6.16,2.14,5.05a2.28,2.28,0,0,1-.51-.21,2.11,2.11,0,0,0-1.47-.56,2.92,2.92,0,0,0-1.88.88.57.57,0,0,1-.36.09Zm-2.42,6.09a.85.85,0,0,0,.69,0,2.92,2.92,0,0,1,1.88-.88,2.1,2.1,0,0,1,1.47.57,2,2,0,0,0,.92.27l1.14,2.69a2.62,2.62,0,0,1-1.14.39c-.84,0-1.17-.9-2.42-.9s-1.86,1.07-2.81,1.07a2,2,0,0,1-.89-.25Zm-.28,4.27c1,0,1.56-1.07,2.81-1.07s1.58.9,2.42.9a3.52,3.52,0,0,0,1.51-.6L67.45,43c-1.2.16-1.53,1.1-2.4,1.1s-1.31-.93-2.6-.93l-.34,0a1.79,1.79,0,0,0-.3-1.1c-.72-.93-1.81-.26-2-.12s-.25.48-.25.48l-.86.93a2.81,2.81,0,0,0,1.25-.18c.12.12.87,0,.87,0a3.51,3.51,0,0,1-.07.5,3,3,0,0,1-1.33.46c-1,0-1.31-.65-1.84-1a.88.88,0,0,0-.37-.09l1.08-2.73A2.19,2.19,0,0,0,59.48,40.91Zm7,7.51a2.06,2.06,0,0,0-.7-.72l-1.21.83a8,8,0,0,0-2.28-.83,8.28,8.28,0,0,0-2.4.91c.59-1.11,1.8-3.37,1.8-3.37a7.17,7.17,0,0,0,.25-.86,2.55,2.55,0,0,1,.49,0c1.29,0,1.65.93,2.6.93s1.26-1.12,2.77-1.12h.09L69.53,48a3.2,3.2,0,0,0-1.19-.28A3.62,3.62,0,0,0,66.51,48.42Zm.94,2.67s-2.26,1.75-3.51,1.8a9.26,9.26,0,0,0,1.53-1.06A2.21,2.21,0,0,1,67.44,51.09Zm-8.25-1c.21,0,2.33-1.24,3.12-1.24a3.17,3.17,0,0,1,.92.24,9.34,9.34,0,0,0-3.36,2.11,1,1,0,0,1-.74.3A1.65,1.65,0,0,1,59.19,50.06Zm-.83-1.36c-.1-.07-.21-.16-.33-.27a2.61,2.61,0,0,0-1.81-.76,3.64,3.64,0,0,0-.95.27l1.44-3.64a1.58,1.58,0,0,1,.82.08c.53.31.87,1,1.84,1a2.08,2.08,0,0,0,.9-.24A26.73,26.73,0,0,1,58.37,48.7Zm-6.49-9.65c0-.29,0-1,1.14-1l.18,0h0l.18.06h0l.15.08,0,0,.16.1.06,0,.16.12a4.85,4.85,0,0,0,.12-1.11,2.7,2.7,0,1,1,.72.11h-.08a4.61,4.61,0,0,1-.26,1.39l.2.15a4,4,0,0,1,.28-.53,1.22,1.22,0,0,1,2.07.12,1.15,1.15,0,0,1,.07.51c-.09,1.09-1.32,1.11-1.75,1A1.52,1.52,0,0,1,55,40a5.85,5.85,0,0,0-.21,1,2.79,2.79,0,0,0,.06.67s.19,1-.5.94c0,0-.74,0-.33-1a5.45,5.45,0,0,0,.34-1.27s0-.3.13-.68l-.25-.21a1.49,1.49,0,0,1-1.32.68A.93.93,0,0,1,51.87,39.05Zm2,5.33c-.25.14-.35-.17-.35-.17a.23.23,0,0,1-.27-.24.85.85,0,0,0,.21-.47,1.16,1.16,0,0,1,.37-.79.59.59,0,0,0,.5.31.52.52,0,0,0,.51-.23,1,1,0,0,1,.11.57,1.47,1.47,0,0,0,.36.66.31.31,0,0,1-.33.33c-.09.24-.38.12-.38.12-.11.2-.38,0-.38,0A.26.26,0,0,1,53.83,44.39ZM54,51.14l.74-1.87a6.36,6.36,0,0,1,1.48-.46,2.6,2.6,0,0,1,1.68.63l-.43.66a6.54,6.54,0,0,0-.58,2.19,5.87,5.87,0,0,0-2,.19A10.78,10.78,0,0,1,54,51.14Zm8.71,7.3a19.61,19.61,0,0,1-7.1-5.08c.3.38.85-.08,1.19-.12.76-.07,1.18,1.14,2.59,1.14s1.79-1.11,3-1.11,1.89,1.06,3.08,1,2.08-.9,2.64-1a1.84,1.84,0,0,1,1,.14A17.32,17.32,0,0,1,62.71,58.44Zm7-5.81a7.72,7.72,0,0,0-.9-.27,13.73,13.73,0,0,0,1.54-1.65,2.4,2.4,0,0,1-2,.36l.38-.77c-.8.54-.71-.55-.71-.55.69,0,.74-.48.74-.48s-.59.33-.87.16a.78.78,0,0,1-.26-.49,2.17,2.17,0,0,1,.69-.13,3.91,3.91,0,0,1,1.8.57l.64,1.53A10.78,10.78,0,0,1,69.74,52.63Zm1.62-8.41s-.1.31-.35.17a.26.26,0,0,1-.34.11s-.27.18-.38,0c0,0-.29.13-.38-.12a.32.32,0,0,1-.33-.33,1.45,1.45,0,0,0,.36-.66A1,1,0,0,1,70,42.8a.52.52,0,0,0,.51.23.59.59,0,0,0,.5-.31,1.15,1.15,0,0,1,.37.79.86.86,0,0,0,.21.47A.23.23,0,0,1,71.37,44.21Zm1.37-9.44a2.73,2.73,0,0,1-2,2.63,5.35,5.35,0,0,0,.12,1.11l.16-.12.06,0,.17-.1,0,0,.15-.08h0l.17-.06h0l.18,0c1.1,0,1.13.71,1.14,1a.92.92,0,0,1-1,1.06,1.49,1.49,0,0,1-1.32-.68l-.25.21a5.5,5.5,0,0,1,.13.68,5.36,5.36,0,0,0,.34,1.27c.41,1.07-.34,1-.34,1-.68.06-.49-.94-.49-.94a2.5,2.5,0,0,0,.05-.67,5.74,5.74,0,0,0-.2-1,1.56,1.56,0,0,1-.39.17c-.44.09-1.66.07-1.76-1a1.14,1.14,0,0,1,2.14-.62,3.9,3.9,0,0,1,.28.53l.21-.15a4.77,4.77,0,0,1-.27-1.39H70a2.73,2.73,0,1,1,2.73-2.73ZM53,38.65c-.42-.07-.69.15-.68.44s.57.72,1.22.21a1.35,1.35,0,0,0,.18-.21,2.35,2.35,0,0,0-.61-.4Zm18.21.65c.65.5,1.21.22,1.22-.21s-.27-.51-.68-.44l-.12,0a2.24,2.24,0,0,0-.6.4A1.17,1.17,0,0,0,71.26,39.3Z"/></svg>